<?xml version="1.0" standalone="no"?>
<!DOCTYPE svg PUBLIC "-//W3C//DTD SVG 20010904//EN"
 "http://www.w3.org/TR/2001/REC-SVG-20010904/DTD/svg10.dtd">
<svg version="1.0" xmlns="http://www.w3.org/2000/svg"
 width="300.000000pt" height="300.000000pt" viewBox="0 0 300.000000 300.000000"
 preserveAspectRatio="xMidYMid meet">
<metadata>
Created by potrace 1.10, written by Peter Selinger 2001-2011
</metadata>
<g transform="translate(0.000000,300.000000) scale(0.100000,-0.100000)"
fill="#000000" stroke="none">
<path d="M1439 2206 c-31 -16 -81 -68 -407 -425 -133 -145 -249 -280 -259
-300 -16 -32 -18 -70 -21 -316 -3 -310 -1 -318 58 -347 32 -17 86 -18 683 -18
696 0 695 0 731 51 14 20 16 60 16 293 0 172 -4 282 -11 307 -16 51 -105 161
-128 157 -22 -4 -121 -115 -121 -136 0 -8 11 -27 25 -44 25 -29 25 -32 25
-207 0 -124 -4 -181 -12 -189 -17 -17 -560 -17 -591 0 -12 6 -45 31 -73 55
-40 34 -59 43 -88 43 -53 0 -68 -10 -183 -121 -56 -55 -107 -99 -112 -99 -8 0
-11 78 -11 243 l0 244 29 39 c16 21 130 147 253 279 166 178 230 241 250 243
21 3 40 -13 113 -92 48 -52 94 -97 102 -100 16 -7 128 106 128 129 0 8 -60 79
-133 159 -154 167 -193 189 -263 152z m94 -31 c19 -8 37 -19 39 -24 1 -5 50
-60 108 -121 58 -62 108 -118 112 -125 9 -14 -57 -95 -77 -95 -7 0 -46 34 -86
76 -88 90 -119 109 -157 96 -23 -8 -148 -127 -212 -201 -11 -13 -64 -72 -119
-130 -54 -58 -113 -122 -130 -141 -18 -19 -45 -52 -59 -74 l-26 -38 2 -235 c1
-206 3 -238 18 -254 33 -37 44 -30 224 139 71 67 108 68 175 6 70 -64 78 -66
380 -66 281 0 304 3 325 42 5 10 10 94 11 190 1 156 -1 174 -20 206 -12 19
-21 41 -21 47 0 7 19 32 40 57 l40 45 44 -49 c27 -30 48 -65 55 -92 15 -58 15
-528 0 -556 -25 -47 -34 -48 -724 -45 l-647 2 -24 28 -24 28 1 262 c0 224 3
268 17 304 11 26 68 97 147 184 72 78 141 154 155 169 35 39 193 210 265 288
51 55 99 90 126 92 4 0 22 -7 42 -15z"/>
<path d="M1820 1700 c-224 -229 -269 -270 -294 -270 -21 0 -45 16 -100 69 -39
37 -81 74 -93 80 -50 26 -113 -22 -113 -86 0 -32 14 -49 136 -174 89 -89 146
-140 164 -144 57 -13 92 15 237 191 76 92 202 244 280 338 153 183 163 204
120 244 -48 45 -54 40 -337 -248z m320 210 c9 -16 0 -32 -57 -102 -37 -46 -77
-94 -89 -108 -12 -14 -92 -110 -178 -215 -221 -268 -217 -264 -246 -273 -16
-6 -36 -4 -56 4 -34 14 -264 255 -264 276 0 25 31 58 54 58 13 0 45 -21 76
-51 112 -104 145 -116 206 -72 16 12 136 129 267 262 149 152 244 241 257 241
10 0 24 -9 30 -20z"/>
</g>
</svg>
